<?xml version="1.0" encoding="iso-8859-1"?>
<!-- Uploaded to: SVG Repo, www.svgrepo.com, Generator: SVG Repo Mixer Tools -->
<svg height="800px" width="800px" version="1.1" id="Layer_1" xmlns="http://www.w3.org/2000/svg" xmlns:xlink="http://www.w3.org/1999/xlink" 
	 viewBox="0 0 512.349 512.349" xml:space="preserve">
<g transform="translate(1 1)">
	<g>
		<path style="fill:#FFDD09;" d="M152.948,144.416c52.053,0,93.867-41.813,93.867-93.867
			C194.762,50.549,152.948,92.363,152.948,144.416"/>
		<path style="fill:#FFDD09;" d="M195.615,193.056c17.92,48.64,72.533,73.387,121.173,54.613
			C298.015,199.883,244.255,175.136,195.615,193.056"/>
		<path style="fill:#FFDD09;" d="M307.402,134.176c46.08-23.893,64-80.213,40.107-126.293
			C301.428,31.776,283.508,88.096,307.402,134.176"/>
	</g>
	<polygon style="fill:#54C9FD;" points="7.882,502.816 50.548,502.816 50.548,298.016 7.882,298.016 	"/>
	<path style="fill:#FFDD09;" d="M496.842,342.389c6.827-5.12,7.68-15.36,2.56-22.187c-11.093-14.507-19.627-18.773-56.32,0.853
		l-74.24,45.227c-23.04,11.947-81.92,8.533-107.52,8.533c0,0,60.587,4.267,36.693-31.573c-11.947-17.92-32.427-28.16-54.613-28.16
		h-33.28c-19.627,0-38.4-5.973-53.76-17.067c-36.693-28.16-105.813,25.6-105.813,25.6v153.6h119.467
		c17.067,0,34.133-1.707,51.2-4.267l110.933-17.067c3.413,0,7.68-0.853,11.093-0.853l0,0c9.387-0.853,17.067-5.973,23.893-11.947
		L496.842,342.389z"/>
	<path style="fill:#FD9808;" d="M499.402,320.203c-5.973-7.68-11.093-12.8-19.627-11.947c0.853,0.853,1.707,2.56,2.56,3.413
		c5.12,6.827,3.413,17.067-2.56,22.187L350.068,434.549c-6.827,5.973-14.507,11.093-23.893,11.947l0,0
		c-3.413,0.853-6.827,0.853-11.093,0.853l-110.933,17.067c-17.067,2.56-34.133,4.267-51.2,4.267h-102.4v8.533h119.467
		c17.067,0,34.133-1.707,51.2-4.267l110.933-17.067c3.413,0,7.68-0.853,11.093-0.853l0,0c9.387-0.853,17.067-5.973,23.893-11.947
		l129.707-100.693C503.668,336.416,504.522,327.03,499.402,320.203"/>
	<path d="M170.015,485.749h-128v-166.4l3.413-2.56c3.413-2.56,75.093-57.173,116.053-26.453c13.653,10.24,30.72,15.36,48.64,15.36
		h33.28c24.747,0,47.787,11.947,61.44,31.573c7.68,11.093,9.387,20.48,5.12,28.16c21.333,0,44.373-1.707,54.613-7.68l73.387-45.227
		c37.547-19.627,52.907-19.627,68.267,0.853c7.68,10.24,5.973,25.6-4.267,34.133l0,0l-128.853,102.4
		c-8.533,7.68-17.92,12.8-28.16,14.507c-3.413,0.853-7.68,1.707-11.947,1.707L222.068,483.19
		C205.002,484.043,187.082,485.749,170.015,485.749z M59.082,468.683h110.933c16.213,0,33.28-0.853,49.493-3.413l112.64-17.067
		c3.413,0,5.973,0,9.387-0.853h0.853c6.827-0.853,13.653-4.267,18.773-10.24l0.853-0.853l129.707-100.693
		c3.413-2.56,3.413-7.68,1.707-10.24c-6.827-10.24-10.24-14.507-46.08,3.413l-73.387,45.227
		c-19.627,10.24-57.173,11.093-97.28,10.24c-1.707,0-3.413,0-4.267,0c-5.12,0-8.533,0-11.093,0l0.853-17.067c2.56,0,5.973,0,9.387,0
		c11.093-0.853,21.333-2.56,23.893-6.827c0.853-1.707,0-6.827-3.413-11.947c-11.093-16.213-29.013-24.747-48.64-24.747h-33.28
		c-21.333,0-42.667-6.827-58.88-18.773c-23.893-18.773-71.68,8.533-92.16,23.04C59.082,327.883,59.082,468.683,59.082,468.683z
		 M496.842,342.389L496.842,342.389L496.842,342.389z"/>
	<path d="M59.082,511.349H-0.652V289.483h59.733V511.349z M16.415,494.283h25.6V306.549h-25.6V494.283z"/>
	<path d="M160.628,409.803c-5.12,0-8.533-3.413-8.533-8.533c0-21.333,16.213-34.133,42.667-34.133h82.773
		c5.12,0,8.533,3.413,8.533,8.533c0,5.12-3.413,8.533-8.533,8.533h-82.773c-25.6,0-25.6,12.8-25.6,17.067
		C169.162,406.389,165.748,409.803,160.628,409.803z"/>
	<path d="M152.948,152.949c-5.12,0-8.533-3.413-8.533-8.533c0-56.32,46.08-102.4,102.4-102.4c5.12,0,8.533,3.413,8.533,8.533
		C255.348,106.869,209.268,152.949,152.948,152.949z M237.428,59.936c-40.107,4.267-71.68,35.84-75.947,75.947
		C201.588,131.616,234.015,99.189,237.428,59.936z"/>
	<path d="M283.508,263.029c-14.507,0-29.013-3.413-42.667-9.387c-24.747-11.093-43.52-31.573-53.76-57.173
		c-1.707-4.267,0.853-9.387,5.12-11.093c52.907-19.627,111.787,6.827,131.413,59.733c1.707,4.267-0.853,9.387-5.12,11.093
		C307.402,260.469,295.455,263.029,283.508,263.029z M207.562,198.176c8.533,17.067,23.04,31.573,40.96,39.253
		c17.92,8.533,37.547,10.24,56.32,5.12c-8.533-17.067-23.04-31.573-40.96-39.253C245.962,194.763,226.335,193.056,207.562,198.176z"
		/>
	<path d="M307.402,142.709c-3.413,0-5.973-1.707-7.68-4.267c-12.8-23.893-15.36-52.053-6.827-78.507
		c8.533-26.453,26.453-46.933,50.347-59.733c4.267-2.56,9.387-0.853,11.093,3.413c12.8,23.893,15.36,52.053,6.827,78.507
		c-8.533,26.453-26.453,46.933-50.347,59.733C309.962,142.709,308.255,142.709,307.402,142.709z M343.242,19.829
		c-16.213,11.093-28.16,26.453-34.133,45.227c-5.973,18.773-5.12,38.4,1.707,57.173c16.213-11.093,28.16-26.453,34.133-45.227
		C350.922,58.229,350.068,37.749,343.242,19.829z"/>
</g>
</svg>